<?xml version="1.0" encoding="utf-8"?>
<!-- Generator: Adobe Illustrator 16.0.0, SVG Export Plug-In . SVG Version: 6.00 Build 0)  -->
<!DOCTYPE svg PUBLIC "-//W3C//DTD SVG 1.1//EN" "http://www.w3.org/Graphics/SVG/1.1/DTD/svg11.dtd">
<svg version="1.1" id="Ebene_1" xmlns="http://www.w3.org/2000/svg" xmlns:xlink="http://www.w3.org/1999/xlink" x="0px" y="0px"
	 width="864.5px" height="395.5px" viewBox="0 0 864.5 395.5" enable-background="new 0 0 864.5 395.5" xml:space="preserve">
<path fill="#FFFFFF" d="M384.92,69.54c-0.021-0.038-0.043-0.076-0.064-0.113L348.793,8.193c-1.302-2.143-3.502-3.422-5.884-3.422
	c-2.444,0-4.648,1.344-5.904,3.608L216.162,228.07c-1.697,2.753-3.669,3.736-4.957,3.736c-1.014,0-1.93-0.625-2.723-1.854
	l-54.894-108.677c-0.238-0.473-0.551-0.905-0.925-1.279c-1.385-1.386-3.365-2.181-5.434-2.181c-2.081,0-4.068,0.794-5.452,2.178
	c-0.3,0.3-0.561,0.638-0.775,1.004l-94.82,161.474c-0.903,1.538-0.918,3.442-0.038,4.996c0.88,1.553,2.521,2.52,4.308,2.534
	l60.503,0.517c3.369,0,7.644-0.646,10.778-5.604l12.916-19.645c0.976-1.49,2.172-2.348,3.282-2.348c0.991,0,1.94,0.705,2.61,1.938
	l61.913,122.293c0.24,0.474,0.554,0.901,0.93,1.276c1.461,1.458,3.65,2.294,6.006,2.294c2.449,0,4.625-0.948,5.971-2.61
	c0.186-0.229,0.352-0.479,0.494-0.734L385.01,80.234C386.873,77.185,386.845,73.013,384.92,69.54z"/>
<g>
	<path fill="#FFFFFF" d="M24.127,360.583c-1.566,0-3.886-0.406-4.988-2.378c-1.45,1.798-3.77,2.9-7.656,2.9
		c-5.046,0-8.874-2.204-8.874-9.28c0-7.02,4.408-9.688,12.296-9.688h2.61v-1.218c0-2.204-0.986-3.479-3.886-3.479
		c-3.306,0-6.032,0.521-8.932,1.393v-6.612c2.146-0.638,6.09-1.158,8.932-1.158c9.859,0,11.6,3.246,11.6,10.382v11.481
		c0,1.16,0.522,1.856,2.262,1.856v5.8H24.127L24.127,360.583z M17.516,350.434v-2.608h-2.9c-2.494,0-4.176,0.984-4.176,3.596
		c0,1.798,0.87,3.19,3.248,3.19C16.877,354.609,17.516,351.941,17.516,350.434z"/>
	<path fill="#FFFFFF" d="M44.891,360.409c-0.812,0.174-3.074,0.464-5.278,0.464c-4.814,0-6.322-2.842-6.322-8.874v-32.015h7.714
		v31.725c0,1.856,0.348,2.494,1.798,2.494c0.87,0,1.798-0.174,2.088-0.232V360.409L44.891,360.409z"/>
	<path fill="#FFFFFF" d="M61.71,360.409c-0.812,0.174-3.074,0.464-5.278,0.464c-4.814,0-6.322-2.842-6.322-8.874v-32.015h7.714
		v31.725c0,1.856,0.348,2.494,1.798,2.494c0.87,0,1.798-0.174,2.088-0.232V360.409L61.71,360.409z"/>
	<path fill="#FFFFFF" d="M77.776,351.593c-1.218,0-2.378-0.058-3.422-0.174c-0.232,0.464-0.348,1.044-0.348,1.683
		c0,0.29,0.058,0.64,0.116,0.93c2.494-0.232,5.336-0.35,6.844-0.35c6.96,0,10.961,2.203,10.961,9.337c0,7.716-6.322,8.7-13.397,8.7
		c-2.9,0-9.106-0.58-11.252-0.984v-6.266c2.958,0.522,7.888,0.986,11.6,0.986c3.944,0,5.104-0.813,5.104-2.61
		c0-1.45-0.638-2.607-3.538-2.607c-2.146,0-8.178,0.348-10.498,0.638c-1.16-1.044-2.726-3.479-2.726-6.554
		c0-2.03,0.522-3.712,1.508-5.046c-1.972-1.685-2.958-4.234-2.958-8.063c0-8.933,6.786-10.148,13.456-10.148
		c1.914,0,3.596,0.23,5.046,0.694l9.512-0.406v5.916l-3.712-0.23c0.522,1.334,0.812,2.898,0.812,4.641
		C90.884,348.577,86.534,351.593,77.776,351.593z M78.646,337.325c-4.176,0-5.162,1.219-5.162,4.351c0,2.438,1.45,3.771,4.292,3.771
		c3.422,0,5.394-0.64,5.394-4.233C83.17,338.313,82.01,337.325,78.646,337.325z"/>
	<path fill="#FFFFFF" d="M119.071,360.583c-1.566,0-3.886-0.406-4.988-2.378c-1.45,1.798-3.77,2.9-7.656,2.9
		c-5.046,0-8.874-2.204-8.874-9.28c0-7.02,4.408-9.688,12.296-9.688h2.61v-1.218c0-2.204-0.986-3.479-3.886-3.479
		c-3.306,0-6.032,0.521-8.932,1.393v-6.612c2.146-0.638,6.09-1.158,8.932-1.158c9.859,0,11.6,3.246,11.6,10.382v11.481
		c0,1.16,0.522,1.856,2.262,1.856v5.8H119.071L119.071,360.583z M100.338,328.104v-6.67h7.54v6.67H100.338z M112.459,350.434v-2.608
		h-2.9c-2.494,0-4.176,0.984-4.176,3.596c0,1.798,0.87,3.19,3.248,3.19C111.821,354.609,112.459,351.941,112.459,350.434z
		 M111.938,328.104v-6.67h7.54v6.67H111.938z"/>
	<path fill="#FFFFFF" d="M135.659,331.584v18.443c0,3.886,1.218,4.406,3.248,4.406c2.958,0,4.118-2.263,4.118-4.351v-18.501h7.714
		v28.999h-6.264l-0.522-2.262c-1.74,1.682-4.002,2.782-6.902,2.782c-7.25,0-9.106-3.771-9.106-11.311V331.58h7.714V331.584
		L135.659,331.584z"/>
</g>
<g>
	<path fill="#FFFFFF" d="M431.108,246.332c-8.67,0-15.414-1.084-19.867-1.686v-83.686h16.014v27.212
		c3.371-2.528,7.585-4.214,12.762-4.214c13.246,0,19.627,6.622,19.627,27.332C459.646,237.662,452.3,246.332,431.108,246.332z
		 M427.255,206.718v25.646c1.688,0.12,3.371,0.241,4.938,0.241c8.909,0,11.196-3.492,11.196-20.108
		c0-12.161-1.927-14.81-7.585-14.81C430.506,197.688,427.255,202.383,427.255,206.718z"/>
	<path fill="#FFFFFF" d="M487.943,221.046c0.48,8.91,2.77,11.56,9.993,11.56c6.622,0,13.243-1.084,16.735-1.807v13.486
		c-3.853,1.083-12.401,2.047-16.735,2.047c-17.46,0-26.248-4.335-26.248-31.186c0-22.275,8.909-31.188,24.684-31.188
		c18.182,0,22.757,9.873,22.757,26.973v10.112L487.943,221.046L487.943,221.046z M488.063,209.246h15.651v-3.13
		c0-5.9-2.287-8.91-7.586-8.91C491.074,197.206,488.787,200.216,488.063,209.246z"/>
	<path fill="#FFFFFF" d="M532.377,245.248v-60.203h13.004l1.205,5.418c3.25-3.854,7.465-6.502,12.521-6.502
		c1.807,0,3.854,0.24,5.539,0.602v15.895c-2.049-0.481-3.732-0.724-6.021-0.724c-7.946,0-10.234,8.91-10.234,17.459v28.056
		L532.377,245.248L532.377,245.248z"/>
	<path fill="#FFFFFF" d="M616.545,245.248c-3.251,0-8.067-0.844-10.354-4.938c-3.012,3.731-7.826,6.021-15.895,6.021
		c-10.477,0-18.423-4.576-18.423-19.267c0-14.568,9.151-20.106,25.526-20.106h5.418v-2.528c0-4.574-2.047-7.225-8.066-7.225
		c-6.863,0-12.521,1.083-18.543,2.89v-13.727c4.455-1.324,12.645-2.408,18.543-2.408c20.469,0,24.08,6.743,24.08,21.554v23.842
		c0,2.408,1.084,3.853,4.696,3.853v12.041L616.545,245.248L616.545,245.248z M602.818,224.177v-5.418h-6.021
		c-5.178,0-8.67,2.048-8.67,7.466c0,3.731,1.807,6.621,6.742,6.621C601.494,232.846,602.818,227.309,602.818,224.177z"/>
	<path fill="#FFFFFF" d="M653.993,198.893v28.295c0,3.854,1.445,5.418,5.058,5.418c2.528,0,5.779-0.603,7.586-1.084v13.365
		c-1.564,0.481-8.309,1.445-12.644,1.445c-13.485,0-16.017-9.15-16.017-19.747v-27.692h-7.824v-13.848h7.824v-14.449h16.017v14.449
		h12.041v13.848H653.993L653.993,198.893z"/>
	<path fill="#FFFFFF" d="M692.887,185.045v38.289c0,8.066,2.528,9.15,6.742,9.15c6.143,0,8.549-4.695,8.549-9.03v-38.409h16.017
		v60.203H711.19l-1.083-4.696c-3.613,3.492-8.311,5.78-14.329,5.78c-15.053,0-18.903-7.827-18.903-23.479v-37.81L692.887,185.045
		L692.887,185.045z"/>
	<path fill="#FFFFFF" d="M739.848,245.248v-60.203h13.005l1.084,4.695c3.731-3.491,8.55-5.779,14.447-5.779
		c16.616,0,19.507,7.706,19.507,23.961v37.326h-16.015v-37.688c0-8.067-2.408-9.753-6.743-9.753c-6.141,0-9.03,4.214-9.271,8.429
		v39.012H739.848z"/>
	<path fill="#FFFFFF" d="M825.459,226.585c-2.528,0-4.937-0.12-7.104-0.36c-0.48,0.963-0.723,2.166-0.723,3.491
		c0,0.603,0.121,1.324,0.24,1.927c5.178-0.48,11.078-0.723,14.209-0.723c14.449,0,22.756,4.575,22.756,19.385
		c0,16.016-13.123,18.063-27.813,18.063c-6.021,0-18.903-1.204-23.358-2.048v-13.004c6.141,1.084,16.375,2.047,24.081,2.047
		c8.188,0,10.596-1.687,10.596-5.418c0-3.012-1.324-5.42-7.345-5.42c-4.455,0-16.979,0.725-21.794,1.324
		c-2.407-2.166-5.659-7.224-5.659-13.604c0-4.214,1.084-7.706,3.131-10.477c-4.094-3.492-6.141-8.791-6.141-16.735
		c0-18.543,14.088-21.071,27.934-21.071c3.977,0,7.466,0.481,10.479,1.444l19.746-0.843v12.282l-7.705-0.482
		c1.083,2.77,1.686,6.021,1.686,9.633C852.672,220.324,843.641,226.585,825.459,226.585z M827.266,196.965
		c-8.67,0-10.717,2.528-10.717,9.03c0,5.058,3.011,7.827,8.91,7.827c7.104,0,11.198-1.325,11.198-8.79
		C836.657,199.012,834.249,196.965,827.266,196.965z"/>
</g>
<path fill="#FFFFFF" d="M447.604,359.525c-3.854,1.084-9.514,1.807-13.848,1.807c-15.654,0-24.323-4.816-24.323-32.39
	c0-21.555,8.669-29.981,24.442-29.981c3.975,0,10.235,0.843,13.729,1.688v14.088c-4.455-0.964-6.863-1.688-13.006-1.688
	c-5.539,0-8.669,3.01-8.669,18.302c0,12.04,2.771,15.896,8.431,15.896c6.141,0,9.753-1.084,13.242-1.688L447.604,359.525
	L447.604,359.525z"/>
<path fill="#FFFFFF" d="M485.971,361.091c-17.099,0-25.768-6.863-25.768-32.146c0-20.472,7.706-29.741,25.768-29.741
	c18.063,0,26.009,9.271,26.009,29.741C511.979,354.228,503.068,361.091,485.971,361.091z M485.971,312.206
	c-7.225,0-9.393,4.455-9.393,18.542c0,13.365,1.927,17.339,9.393,17.339s9.632-3.974,9.632-17.339
	C495.603,316.661,493.194,312.206,485.971,312.206z"/>
<path fill="#FFFFFF" d="M569.055,360.248c-3.251,0-8.065-0.843-10.354-4.938c-3.01,3.732-7.826,6.021-15.895,6.021
	c-10.477,0-18.423-4.576-18.423-19.266c0-14.569,9.151-20.107,25.526-20.107h5.418v-2.529c0-4.573-2.047-7.224-8.066-7.224
	c-6.861,0-12.521,1.083-18.543,2.89v-13.727c4.455-1.324,12.645-2.408,18.543-2.408c20.471,0,24.08,6.743,24.08,21.553v23.843
	c0,2.406,1.084,3.853,4.696,3.853v12.041L569.055,360.248L569.055,360.248z M555.328,339.177v-5.418h-6.021
	c-5.178,0-8.67,2.047-8.67,7.465c0,3.732,1.809,6.622,6.742,6.622C554.004,347.846,555.328,342.308,555.328,339.177z"/>
<path fill="#FFFFFF" d="M626.407,359.525c-3.854,1.084-9.515,1.807-13.849,1.807c-15.651,0-24.32-4.816-24.32-32.39
	c0-21.555,8.669-29.981,24.44-29.981c3.976,0,10.235,0.843,13.729,1.688v14.088c-4.455-0.964-6.863-1.688-13.004-1.688
	c-5.539,0-8.669,3.01-8.669,18.302c0,12.04,2.77,15.896,8.428,15.896c6.141,0,9.754-1.084,13.245-1.688V359.525L626.407,359.525z"/>
<path fill="#FFFFFF" d="M641.016,360.248v-84.285h16.016v27.092c3.371-2.526,7.586-4.094,12.521-4.094
	c16.616,0,19.507,7.706,19.507,23.961v37.326h-16.015V322.56c0-8.065-2.408-9.753-6.743-9.753c-6.141,0-9.03,4.216-9.271,8.431
	v39.012L641.016,360.248L641.016,360.248z"/>
<path fill="#FFFFFF" d="M705.473,289.811v-13.848h17.221v13.848H705.473z M706.074,360.248v-60.203h16.015v60.203H706.074z"/>
<path fill="#FFFFFF" d="M739.705,360.248v-60.203h13.004l1.084,4.695c3.732-3.491,8.549-5.779,14.448-5.779
	c16.616,0,19.507,7.706,19.507,23.961v37.326h-16.015V322.56c0-8.065-2.408-9.753-6.743-9.753c-6.143,0-9.03,4.216-9.271,8.431
	v39.012L739.705,360.248L739.705,360.248z"/>
<path fill="#FFFFFF" d="M825.279,341.585c-2.528,0-4.938-0.12-7.104-0.361c-0.48,0.964-0.723,2.167-0.723,3.492
	c0,0.604,0.121,1.324,0.24,1.926c5.178-0.479,11.076-0.722,14.209-0.722c14.447,0,22.756,4.575,22.756,19.385
	c0,16.017-13.123,18.063-27.813,18.063c-6.021,0-18.903-1.204-23.356-2.047v-13.004c6.141,1.084,16.375,2.047,24.081,2.047
	c8.188,0,10.596-1.688,10.596-5.418c0-3.013-1.324-5.419-7.345-5.419c-4.455,0-16.979,0.723-21.794,1.322
	c-2.407-2.167-5.659-7.224-5.659-13.604c0-4.214,1.084-7.706,3.131-10.478c-4.094-3.489-6.143-8.79-6.143-16.734
	c0-18.543,14.09-21.071,27.936-21.071c3.975,0,7.466,0.481,10.477,1.444l19.746-0.843v12.28l-7.705-0.48
	c1.083,2.77,1.688,6.021,1.688,9.633C852.492,335.324,843.461,341.585,825.279,341.585z M827.086,311.965
	c-8.67,0-10.717,2.528-10.717,9.03c0,5.058,3.011,7.827,8.91,7.827c7.104,0,11.196-1.325,11.196-8.79
	C836.478,314.012,834.069,311.965,827.086,311.965z"/>
</svg>
